<svg width="1024" height="1024" viewBox="0 0 1024 1024" fill="none" xmlns="http://www.w3.org/2000/svg">
  <rect width="1024" height="1024" rx="224" fill="#F7FAF8"/>
  <circle cx="840" cy="96" r="276" fill="#EAF8F0"/>
  <circle cx="96" cy="896" r="282" fill="#EDF1F7"/>
  <rect x="222" y="190" width="580" height="580" rx="180" fill="#12231A" fill-opacity="0.10"/>
  <rect x="222" y="178" width="580" height="580" rx="180" fill="white" stroke="#DDF2E7" stroke-width="7"/>
  <rect x="318" y="360" width="388" height="280" rx="54" fill="#ECF8F1" stroke="#A7E4C2" stroke-width="8"/>
  <path d="M324 374L512 520L700 374" stroke="#87D9AD" stroke-width="8" stroke-linecap="round" stroke-linejoin="round"/>
  <path d="M324 630L462 508" stroke="#BCEBD0" stroke-width="8" stroke-linecap="round"/>
  <path d="M700 630L562 508" stroke="#BCEBD0" stroke-width="8" stroke-linecap="round"/>
  <path d="M435 506V478C435 435.474 469.474 401 512 401C554.526 401 589 435.474 589 478V506" stroke="#576B95" stroke-width="22" stroke-linecap="round"/>
  <rect x="397" y="506" width="230" height="158" rx="46" fill="#576B95"/>
  <circle cx="512" cy="574" r="26" fill="white"/>
  <rect x="501" y="584" width="22" height="46" rx="11" fill="white"/>
</svg>
