<svg xmlns="http://www.w3.org/2000/svg" width="100" height="100" viewBox="0 0 100 100">
  <rect width="100" height="100" rx="15" fill="#e6f7ff"/>
  <circle cx="35" cy="30" r="8" fill="#1890ff"/>
  <circle cx="65" cy="30" r="8" fill="#1890ff"/>
  <circle cx="50" cy="45" r="8" fill="#1890ff"/>
  <path d="M25 70 Q25 60 35 60 L40 60 Q45 60 45 70 L45 85 L25 85 Z" fill="#1890ff"/>
  <path d="M55 70 Q55 60 65 60 L70 60 Q75 60 75 70 L75 85 L55 85 Z" fill="#1890ff"/>
  <path d="M40 75 Q40 65 50 65 L55 65 Q60 65 60 75 L60 90 L40 90 Z" fill="#1890ff"/>
</svg>